<svg xmlns="http://www.w3.org/2000/svg" viewBox="0 0 800 600" fill="none">
  <style>
    .primary { fill: #4a6de5; }
    .secondary { fill: #2c3e50; }
    .accent { fill: #e74c3c; }
    .light { fill: #f8f9fa; }
    .dark { fill: #343a40; }
  </style>
  <!-- Custom Solution Illustration -->
  <rect x="150" y="100" width="500" height="400" rx="20" fill="#ffffff" stroke="#e0e0e0" stroke-width="2"/>
  
  <!-- Gears in the background -->
  <circle cx="250" cy="200" r="60" fill="#f5f7fa" stroke="#4a6de5" stroke-width="3"/>
  <circle cx="250" cy="200" r="40" fill="#ffffff" stroke="#4a6de5" stroke-width="2"/>
  <path d="M250 160 L250 170 L245 172 L240 170 L240 160 L245 158 Z" class="primary"/>
  <path d="M250 230 L250 240 L245 242 L240 240 L240 230 L245 228 Z" class="primary"/>
  <path d="M210 200 L220 200 L222 195 L220 190 L210 190 L208 195 Z" class="primary"/>
  <path d="M280 200 L290 200 L292 195 L290 190 L280 190 L278 195 Z" class="primary"/>
  
  <!-- Code blocks -->
  <rect x="350" y="150" width="250" height="40" rx="5" fill="#f5f7fa"/>
  <rect x="370" y="165" width="100" height="10" rx="2" class="primary" opacity="0.7"/>
  <rect x="480" y="165" width="60" height="10" rx="2" class="secondary" opacity="0.5"/>
  <rect x="550" y="165" width="30" height="10" rx="2" class="accent" opacity="0.6"/>
  
  <rect x="350" y="200" width="250" height="40" rx="5" fill="#f5f7fa"/>
  <rect x="370" y="215" width="80" height="10" rx="2" class="secondary" opacity="0.5"/>
  <rect x="460" y="215" width="120" height="10" rx="2" class="primary" opacity="0.7"/>
  
  <rect x="350" y="250" width="250" height="40" rx="5" fill="#f5f7fa"/>
  <rect x="370" y="265" width="60" height="10" rx="2" class="accent" opacity="0.6"/>
  <rect x="440" y="265" width="80" height="10" rx="2" class="primary" opacity="0.7"/>
  <rect x="530" y="265" width="40" height="10" rx="2" class="secondary" opacity="0.5"/>
  
  <!-- Custom puzzle pieces -->
  <path d="M200 350 C210 330 240 330 250 350 C270 350 270 380 250 380 C240 400 210 400 200 380 C180 380 180 350 200 350 Z" fill="#4a6de5" opacity="0.2" stroke="#4a6de5" stroke-width="2"/>
  
  <path d="M250 350 C260 330 290 330 300 350 C320 350 320 380 300 380 C290 400 260 400 250 380 C230 380 230 350 250 350 Z" fill="#e74c3c" opacity="0.2" stroke="#e74c3c" stroke-width="2"/>
  
  <path d="M300 350 C310 330 340 330 350 350 C370 350 370 380 350 380 C340 400 310 400 300 380 C280 380 280 350 300 350 Z" fill="#2c3e50" opacity="0.2" stroke="#2c3e50" stroke-width="2"/>
  
  <!-- Custom text labels -->
  <rect x="400" y="350" width="150" height="20" rx="4" class="primary" opacity="0.1"/>
  <rect x="410" y="355" width="80" height="10" rx="2" class="primary"/>
  
  <rect x="400" y="380" width="180" height="20" rx="4" class="secondary" opacity="0.1"/>
  <rect x="410" y="385" width="120" height="10" rx="2" class="secondary"/>
  
  <rect x="400" y="410" width="120" height="20" rx="4" class="accent" opacity="0.1"/>
  <rect x="410" y="415" width="60" height="10" rx="2" class="accent"/>
</svg>
