<svg xmlns="http://www.w3.org/2000/svg" viewBox="0 0 800 600" fill="none">
  <style>
    .primary { fill: #4a6de5; }
    .secondary { fill: #2c3e50; }
    .accent { fill: #e74c3c; }
    .light { fill: #f8f9fa; }
    .dark { fill: #343a40; }
  </style>
  <rect width="600" height="400" rx="20" x="100" y="100" class="light" />
  <rect width="580" height="40" rx="8" x="110" y="110" class="primary" opacity="0.9" />
  <rect width="120" height="12" rx="6" x="130" y="124" class="light" opacity="0.9" />
  <rect width="40" height="12" rx="6" x="500" y="124" class="light" opacity="0.4" />
  <rect width="40" height="12" rx="6" x="550" y="124" class="light" opacity="0.4" />
  <rect width="40" height="12" rx="6" x="600" y="124" class="light" opacity="0.4" />
  
  <rect width="260" height="240" rx="12" x="130" y="180" class="primary" opacity="0.1" />
  <rect width="260" height="240" rx="12" x="410" y="180" class="accent" opacity="0.1" />
  <rect width="540" height="40" rx="12" x="130" y="440" class="secondary" opacity="0.1" />
  
  <circle cx="260" cy="250" r="40" class="primary" opacity="0.8" />
  <rect width="160" height="16" rx="8" x="180" y="320" class="dark" opacity="0.7" />
  <rect width="200" height="12" rx="6" x="160" y="350" class="secondary" opacity="0.4" />
  <rect width="180" height="12" rx="6" x="170" y="370" class="secondary" opacity="0.4" />
  
  <path d="M540 230 L520 270 L560 270 Z" class="accent" />
  <rect width="160" height="16" rx="8" x="460" y="320" class="dark" opacity="0.7" />
  <rect width="200" height="12" rx="6" x="440" y="350" class="secondary" opacity="0.4" />
  <rect width="180" height="12" rx="6" x="450" y="370" class="secondary" opacity="0.4" />
  
  <rect width="80" height="16" rx="8" x="150" y="450" class="dark" opacity="0.7" />
  <rect width="80" height="16" rx="8" x="360" y="450" class="primary" opacity="0.8" />
  <rect width="80" height="16" rx="8" x="570" y="450" class="primary" opacity="0.3" />
</svg>
